<svg width="1024" height="1024" viewBox="0 0 1024 1024" xmlns="http://www.w3.org/2000/svg">
  <!-- White background -->
  <rect width="1024" height="1024" fill="#FFFFFF"/>

  <!-- Wallet icon in purple - centered and scaled to 60% -->
  <g transform="translate(512, 512) scale(25.6)">
    <path transform="translate(-12, -12)" fill="#731FE0" d="M21 18v1c0 1.1-.9 2-2 2H5c-1.11 0-2-.9-2-2V5c0-1.1.89-2 2-2h14c1.1 0 2 .9 2 2v1h-9c-1.11 0-2 .9-2 2v8c0 1.1.89 2 2 2h9zm-9-2h10V8H12v8zm4-2.5c-.83 0-1.5-.67-1.5-1.5s.67-1.5 1.5-1.5 1.5.67 1.5 1.5-.67 1.5-1.5 1.5z"/>
  </g>
</svg>
